<svg id="logo" 
    xmlns="http://www.w3.org/2000/svg" 
    xmlnsXlink="http://www.w3.org/1999/xlink" 
    viewBox="0 0 1254.56 952.37" >
    <defs>
        <radialGradient id="A" cx="164.02" cy="485.16" r="209.72" 
            gradientUnits="userSpaceOnUse">
        <stop offset="0" stopColor="#fff"/>
        <stop offset=".07" stopColor="#e0e0e0"/>
        <stop offset=".21" stopColor="#a5a5a5"/>
        <stop offset=".36" stopColor="#737373"/>
        <stop offset=".5" stopColor="#494949"/>
        <stop offset=".64" stopColor="#292929"/>
        <stop offset=".77" stopColor="#131313"/>
        <stop offset=".89" stopColor="#050505"/>
        <stop offset="1"/>
    </radialGradient>
    <radialGradient id="B" cx="164.02" cy="485.16" r="210.2" 
        gradientUnits="userSpaceOnUse">
        <stop offset="0" stopColor="#fff"/>
        <stop offset=".08" stopColor="#cacaca"/>
        <stop offset=".17" stopColor="#9b9b9b"/>
        <stop offset=".26" stopColor="#717171"/>
        <stop offset=".36" stopColor="#4e4e4e"/>
        <stop offset=".46" stopColor="#323232"/>
        <stop offset=".56" stopColor="#1c1c1c"/>
        <stop offset=".68" stopColor="#0c0c0c"/>
        <stop offset=".81" stopColor="#030303"/>
        <stop offset="1"/>
    </radialGradient>
    <radialGradient id="C" cx="859.96" r="196.46" xlinkHref="#B"/>
    <radialGradient id="D" cx="859.96" r="196.92" xlinkHref="#B"/>
    <radialGradient id="E" cx="1144.48" cy="370.51" r="32.47" 
        gradientTransform="translate(-554.95 -242.01) scale(1.54 1.05)" 
        gradientUnits="userSpaceOnUse">
        <stop offset="0" stopColor="#fff"/>
        <stop offset=".01" stopColor="#f6f6f6"/>
        <stop offset=".05" stopColor="#c8c8c8"/>
        <stop offset=".09" stopColor="#9d9d9d"/>
        <stop offset=".14" stopColor="#777"/>
        <stop offset=".2" stopColor="#575757"/>
        <stop offset=".25" stopColor="#3b3b3b"/>
        <stop offset=".32" stopColor="#252525"/>
        <stop offset=".4" stopColor="#141414"/>
        <stop offset=".49" stopColor="#090909"/>
        <stop offset=".63" stopColor="#020202"/>
        <stop offset="1"/>
    </radialGradient>
    <radialGradient id="F" cx="1202.73" cy="147.35" r="41.04" xlinkHref="#B"/>
    <radialGradient id="G" cx="1075.33" cy="522.72" r="204.36" xlinkHref="#B"/>
    <radialGradient id="logo-stroke" cx="1075.33" cy="522.72" r="204.86" xlinkHref="#B"/>
    <radialGradient id="I" cx="1174.08" cy="637.07" r="127.87" xlinkHref="#B"/>
    <radialGradient id="J" cx="1174.23" cy="637.17" r="128.45" xlinkHref="#B"/>
    <radialGradient id="K" cx="538.34" cy="518.07" r="219.14" xlinkHref="#B"/>
    <radialGradient id="L" cx="538.34" cy="518.07" r="219.64" xlinkHref="#B"/>
    </defs>
    <g transform="translate(-20.72 -224.71)" className="logo-stroke">
        <path d="M306.82,725.7c0,12.48-6.24,19.41-17.33,19.41h-20.8c-11.78,0-18-9.7-22.18-19.41L50.34,328.5V736.79c0,5.55-2.08,8.32-6.93,8.32H28.15c-4.85,0-6.93-2.77-6.93-8.32l.7-492.16c0-11.79,6.23-19.42,18-19.42H63.51c11.09,0,13.17,8.32,18.71,19.42L277.71,663.32V233.53c0-5.54,2.07-8.32,6.93-8.32h15.25c4.85,0,6.93,2.78,6.93,8.32Z" 
            fill="url(#A)" stroke="url(#B)"/>
        <path d="M817.33,717.38h121.3c11.79,0,19.41,2.78,19.41,14.56s-7.62,13.17-19.41,13.17H779.89c-11.78,0-18-7.62-18-19.41V244.63c0-11.79,6.24-19.42,18-19.42h21.49c11.09,0,16,7.63,16,19.42Z" 
            fill="url(#C)" stroke="url(#D)"/>
    </g>
    <path d="M1160.9 176.25l43.74 9.98 39.91-63.54-46.05-14.18-37.6 67.74z" 
        fill="url(#E)" stroke="url(#F)" className="logo-stroke"/>
    <g transform="translate(-20.72 -224.71)" className="logo-stroke">
        <path d="M1211.79,409.38c3.76,6,80.2-16.76,59.42-65.82a50.07,50.07,0,0,0-29.32-27.65c-8-2.83-14.66-2.86-20.68-1.39a37.24,37.24,0,0,0-27,26.27,41.51,41.51,0,0,0,.81,23.77,19.82,19.82,0,0,0,3.22,6.18c4,5.25,7.48,6.78,11.79,4.92a13.72,13.72,0,0,0,7.94-12.49c.25-13.46,6.15-16.48,13.31-19.5,18.79-1.73,37.32,28.64-17.16,50.82a6,6,0,0,0-2.78,2.2c-1.88,2.84-3.1,8.51.48,12.69,2.28,2.66,18.92-3.13,18-1.78-4.67,6.66-8.35,9.82-14.64,19-13.76,20.13-15.73,22.16-15.73,22.16s-27.56-22.28-60.94-24.47l-33.37-2.19s1.64-23.27,19.63-22.25,40.19-1.55,37.69,20.93l37-47.22c-9.74-19.07-7.29-25-4.18-36.59-.48-1.38-7.41-3.4-8.51-3.87-29-12.35-154.55-56.61-256.89,51.91-120,127.2-23.13,326,128.26,344.6,93.22,11.42,159.8-21.23,191.78-79.21,31.72-57.5,22.4-129.28-22.08-177.58-32.33-35.11-83-60.83-154-46.46-31,6.9-52.67,18.89-67.93,45.66-37,64.85,44.93,111.13,60.45,113.72,15.53,8.61,28.59,12.77,33.33,34.46,5,22.72-9.63-43.08-8.82-63.75s.17-33.6,1-45.66c0-.85-.75-1.11-1.9-1.06a8.6,8.6,0,0,0-8,7.4c-1.13,7.37-3.7,19-8.16,13.47-8.7-10.73-7.48.86-7.48.86h0c-18.45-6-24-29.82-9.78-43,8-7.39,20.53-13,40.17-12.95,127.62.19,124.84,93,124.84,93s-20.43-10.34-33.5-3.45c-26.35,29.1,43.77,27.88,15.6,78.11-25.11,31.28-60.94,52.92-144,43.6-77.87-12.27-115.91-81.22-115.91-81.22a45.43,45.43,0,0,0,23.69,1.72c17.35-17.11.36-43.09-27.77-65.47-58.27-46.35,71.07-244.82,232.66-166.75,1.88.9,13.12,5.51,17.12,12.75" 
            fill="url(#G)" stroke="url(#logo-stroke)"/>
        <path d="M1224.66,797.94s-59.24-52.08-76.87-80.46c-83.63-98.21-49.36-241.19-49.36-241.19s37.57-1.38,50.55,7c-3.88,11.36-11,46.73-6.91,93.79,14.69,126.83,114.62,188.67,114.62,188.67Z" 
            fill="url(#I)" stroke="url(#J)"/>
        <path d="M577.19 324.74s-24.89-9-81.7 3.69c-82.13 18.35-133.66 65.2-155.49 129.16-25.6 75.07-14 150.8 31.64 211.05 1.41 1.85 3 3.62 4.41 5.56 27.63 38 92.26 67.33 146.75 70.22 100.4 1.06 209.83-70.22 193.54-208.51 3.2-6.45 20.79 3.62 28.79-9 4.8-13.43 8-26.85 0-29.37-8-3.36-23.57 6.71-38.77-.84-14.4-8.39-37.54-50-75.14-64.25C559.43 401.3 454 447.22 465.84 547.92c-.24 16.39 5.82 28.38-15 23.49-12.48-2.92-22.39 3.36-24 12.59 1.6 13.42 27 68.59 54.39 32.72l.36-.82a7.7 7.7 0 0 1 12.49-2.36c17.2 17.21 63.67 53.74 114.67 10.57 23.82-20.16 33.64-61.23 8.52-85.2-6.91-6.6-14.64-10.8-21.94-11.12h-.52c-15.73-.48-28.56 13.33-26.34 28.91.85 6 4 10.06 12.73 13.9 4.7 1.84 9.4 5 8.72 11.28a10.2 10.2 0 0 1-3.11 6.31c-62.41 57.77-138.27-84.26-24.33-119.86 67.11-21 124.73 47.67 112.37 118.86-27.51 158.56-283.32 152.38-303.44-29-6.78-60.95 13.93-183.58 153.59-194.99 10.9-.89 22.49-2.61 29.79 2.27 4.53 3 6.89 10.61 9.46 17.08 17.39 43.85 64.69 6.54 38.95-30.49-3.58-5.14 29.34-3.76 22-31.2-8.25-30.92-25.6-33-23.2-25.49s3.3 15-2.4 24.34c-5.02 8.19-22.41 5.03-22.41 5.03z" 
            fill="url(#K)" stroke="url(#L)"/>
    </g>
    <g fill="#fbb03b">
        <path d="M470.95 785.62q1.9 3 1.9 8.26 0 10-4.81 15.53a132.61 132.61 0 0 1-23.9 21.78 47.83 47.83 0 0 1-28 8.51q-12.88 0-19.47-7.38-6.59-7.38-6.58-21.41 0-7 3.54-25 3.28-15.76 3.29-21.78 0-4-2.78-4c-2.2 0-5.31 2.8-9.36 8.39a123 123 0 0 0-12.15 22.16 179.32 179.32 0 0 0-9.86 29q-4.81 20-23.78 20-7.59 0-10-5.38-2.41-5.38-2.4-19.4 0-8 .25-12.77l.25-20a429.62 429.62 0 0 1 8-80.37q8-41.81 23.52-70.23 15.52-28.42 37.32-28.42 11.63 0 18.84 9.89 7.21 9.89 7.21 25.66 0 25.29-14.92 52.46-14.92 27.17-48.57 63.47-.76 13-.76 26.79 8.34-21.29 18.59-34.68 10.25-13.39 20.24-19.15 10-5.76 18.34-5.76 16.44 0 16.44 16.27 0 9.76-5.56 35.31-4.81 21.78-4.81 28.79 0 10 7.34 10 5.06 0 12-6.13 6.94-6.13 18.59-19.91a9 9 0 0 1 6.84-3.5 5.85 5.85 0 0 1 5.21 3zm-90.43-144.84q-5.57 12.9-10.76 34.8a462.19 462.19 0 0 0-8.48 47.71 179 179 0 0 0 25.93-39.81q10.24-21.52 10.24-39.06 0-8-1.77-12.27c-1.18-2.83-2.87-4.25-5.05-4.25q-4.55-.01-10.11 12.88z"/>
        <path d="M586.43 764.84a17.19 17.19 0 0 1 1.77 8.26q0 12-7.34 14.27a115.6 115.6 0 0 1-33.39 6q-4.8 21-19 33.68-14.2 12.68-32.13 12.64-15.18 0-25.93-7.26a46.16 46.16 0 0 1-16.31-19.28 61.19 61.19 0 0 1-5.57-26q0-19 7.34-33.93a57.26 57.26 0 0 1 20.23-23.28 51.39 51.39 0 0 1 28.59-8.39q19.21 0 31 13.14 11.79 13.14 13.78 32.43a155.51 155.51 0 0 0 28.34-5 15.21 15.21 0 0 1 3.54-.5 5.54 5.54 0 0 1 5.08 3.22zm-74 41.82q5.94-6.51 8-18.78a34.71 34.71 0 0 1-12-13.77 40.47 40.47 0 0 1-4.18-18 43.44 43.44 0 0 1 .76-8h-1.26q-10.12 0-16.82 9.64-6.7 9.64-6.71 27.16 0 13.77 5.44 21 5.44 7.23 12.78 7.26a18.43 18.43 0 0 0 14-6.51z"/>
        <path d="M570.87 829.69q-3.92-10-3.92-32.05a202 202 0 0 1 9.33-61.84q2.28-7.26 7.46-10.64 5.18-3.38 14.54-3.38 5.06 0 7.08 1.25c1.35.84 2 2.42 2 4.76q0 4-3.79 18-2.54 10-4.05 17.52a177.07 177.07 0 0 0-2.53 18.53q8.36-21.54 18.72-35.05 10.36-13.51 20.37-19.28 10-5.76 18.33-5.76 16.45 0 16.45 16.27 0 9.76-5.57 35.31-4.8 21.78-4.8 28.79 0 10 7.33 10 5.07 0 12-6.13 6.93-6.13 18.59-19.91a8.93 8.93 0 0 1 6.83-3.5 5.87 5.87 0 0 1 5.19 3q1.89 3 1.89 8.26 0 10-4.8 15.53a111.41 111.41 0 0 1-23.4 21.78 49.39 49.39 0 0 1-28.46 8.51q-12.9 0-19.48-7.38-6.58-7.38-6.57-21.41 0-7 3.54-25 3.28-15.76 3.29-21.78 0-4-2.79-4-3.29 0-9.23 8.39a133.79 133.79 0 0 0-12.14 22.16 171.37 171.37 0 0 0-10 29q-2.77 11.77-6.45 15.9-3.68 4.13-11.5 4.13-9.55.03-13.46-9.98z"/>
        <path d="M809.92 785.62q1.9 3 1.9 8.26 0 10-4.81 15.53-9.36 11.27-26.43 20.78a73.87 73.87 0 0 1-36.56 9.51q-26.57 0-41.23-14.27-14.66-14.27-14.67-39.05a71.86 71.86 0 0 1 7.33-32.18 59.59 59.59 0 0 1 20.37-23.66 51.57 51.57 0 0 1 29.46-8.76q14.67 0 23.52 8.63 8.85 8.63 8.86 23.42a40.3 40.3 0 0 1-12.53 29.67q-12.51 12.39-42.37 19.65 6.33 11.52 24 11.52 11.38 0 25.93-7.89a85.3 85.3 0 0 0 25.17-20.66 8.93 8.93 0 0 1 6.83-3.5 5.87 5.87 0 0 1 5.23 3zm-84.74-28.54q-6.45 10.77-6.46 26v.5q14.92-3.5 23.53-10.52 8.61-7.02 8.6-16.27a10.81 10.81 0 0 0-2.66-7.64 9.35 9.35 0 0 0-7.2-2.88q-9.37.02-15.81 10.81z"/>
        <path d="M926.03 786.29a15.06 15.06 0 0 1 1.89 7.89q0 5.76-1.77 9a16.4 16.4 0 0 1-5.56 5.76l-48.57 32.3q-9.62 51.82-25.17 81.49-15.55 29.67-39.57 29.64-12.9 0-21-7.89-8.1-7.89-8.09-20.65a59 59 0 0 1 5.44-24q5.43-12.27 20.23-28.16 14.8-15.89 41.87-36.43l.76-5.76q1.77-9.26 4-26.54-5.07 18-14.17 27.41-9.1 9.41-19.23 9.39-11.39 0-18.59-10.39-7.2-10.39-7.22-25.95a198.59 198.59 0 0 1 10.88-67.6c1.68-5 4.05-8.59 7.08-10.77s7.84-3.25 14.42-3.25c3.71 0 6.28.59 7.72 1.75a6.4 6.4 0 0 1 2.15 5.26q0 2-2.78 13.52-2.53 9.26-4 16.77-2 10.28-3.54 19.66a100.64 100.64 0 0 0-1.52 15.4q0 9.51 5.31 9.51 3.79 0 9.49-7.51 5.7-7.51 12.14-22.78a303.11 303.11 0 0 0 12.52-37.56c1.35-5 3.42-8.59 6.2-10.77s7-3.25 12.52-3.25q5.82 0 8.1 1.5 2.28 1.5 2.27 5 0 6.25-6.57 43.06l-6.58 40.31q19.47-14.52 37.94-26.54a11.6 11.6 0 0 1 5.82-2 5.82 5.82 0 0 1 5.18 3.18zM824.21 913.56q7.83-14.52 15.68-48.32-19.49 16.27-28.2 29.67-8.71 13.4-8.73 23.38a13.5 13.5 0 0 0 1.64 7 5.84 5.84 0 0 0 5.44 2.76q6.33.04 14.17-14.49z"/>
    </g>
</svg>